<?xml version="1.0" encoding="UTF-8"?>
<svg version="1.1" xmlns="http://www.w3.org/2000/svg" width="260" height="325">
<path d="M0 0 C-0.70606403 4.99787519 -2.68070224 9.38658046 -4.62109375 14.00390625 C-4.99218765 14.89754379 -5.36328156 15.79118134 -5.74562073 16.7118988 C-6.5500322 18.64770504 -7.35650321 20.58265644 -8.16479492 22.5168457 C-9.89956793 26.66825435 -11.62443977 30.82375211 -13.34976196 34.97909546 C-14.24443949 37.13377665 -15.13960735 39.2882543 -16.0352478 41.4425354 C-20.39944796 51.94435856 -24.70388003 62.47018867 -29 73 C-35.62899214 89.23709472 -42.31067116 105.45187831 -49.01553345 121.65777588 C-56.08271241 138.74273319 -63.0742607 155.85723111 -70 173 C-73.38860934 169.89668096 -74.72652106 166.2781456 -76.36987305 162.07202148 C-76.85333191 160.86186371 -76.85333191 160.86186371 -77.34655762 159.6272583 C-78.40923241 156.96149614 -79.46063097 154.29144354 -80.51171875 151.62109375 C-81.24671671 149.76906093 -81.98230518 147.91726235 -82.71846008 146.06568909 C-84.25893162 142.18638469 -85.79418553 138.30507097 -87.32543945 134.42211914 C-89.2917108 129.43645692 -91.26782006 124.45476997 -93.24743938 119.4743948 C-94.76609833 115.65207933 -96.28109277 111.82832062 -97.79480934 108.00404549 C-98.52249236 106.16605908 -99.2509656 104.32838533 -99.98023033 102.49102592 C-100.99643229 99.9282475 -102.00805987 97.3637132 -103.01831055 94.79858398 C-103.32217178 94.03437637 -103.62603302 93.27016876 -103.93910217 92.48280334 C-106 87.22907431 -106 87.22907431 -106 85 C-104.49212839 83.62508701 -102.91460239 82.32635538 -101.3125 81.0625 C-96.28412358 77.04890588 -91.36398194 72.93634845 -86.50512695 68.71899414 C-83.48860225 66.13495287 -80.47056701 63.93378457 -77 62 C-74.53062327 68.2322365 -72.6813917 74.51292846 -71 81 C-70.35581878 78.98586005 -69.71248515 76.97144579 -69.07299805 74.95581055 C-68.51885223 73.21808421 -67.95767346 71.48258673 -67.38989258 69.74926758 C-66.13287648 65.86117066 -65.02564259 62.14414903 -64.30859375 58.11328125 C-62.26059201 46.81707039 -54.87511093 41.98113101 -46.07666016 35.53515625 C-43.3404412 33.51242585 -40.73866713 31.36618635 -38.125 29.1875 C-36.41679002 27.79151571 -34.70845897 26.39567956 -33 25 C-31.16654964 23.50014304 -29.33321829 22.0001406 -27.5 20.5 C-26.59507812 19.76007813 -25.69015625 19.02015625 -24.7578125 18.2578125 C-22.89658472 16.73403112 -21.0372517 15.20793284 -19.1796875 13.6796875 C-14.78815945 10.07105024 -10.38640262 6.47526737 -5.9375 2.9375 C-5.22464844 2.36902344 -4.51179688 1.80054688 -3.77734375 1.21484375 C-2 0 -2 0 0 0 Z " fill="#6B2645" transform="translate(186,152)"/>
<path d="M0 0 C0.25785278 0.93784836 0.51570557 1.87569672 0.78137207 2.84196472 C3.25106402 11.8245323 5.72088917 20.80706324 8.19083405 29.78956127 C9.70679181 35.30269393 11.22266207 40.81585063 12.73841858 46.32903862 C13.23009483 48.11726769 13.72182448 49.90548208 14.21360779 51.69368172 C15.42820385 56.11015063 16.64217347 60.52678953 17.85473633 64.94381714 C20.05327409 72.9489129 22.26137129 80.95095613 24.50390625 88.94384766 C24.88500823 90.3068765 25.26599357 91.66993797 25.64685059 93.03303528 C26.3405086 95.51170145 27.0382388 97.98923315 27.74084473 100.46537781 C28.19300354 102.08413567 28.19300354 102.08413567 28.65429688 103.7355957 C28.91625854 104.6634639 29.17822021 105.59133209 29.44812012 106.5473175 C30 109 30 109 30 113 C28.27856445 114.52050781 28.27856445 114.52050781 25.86328125 115.953125 C24.98115967 116.48655518 24.09903809 117.01998535 23.19018555 117.56958008 C21.7657312 118.40138794 21.7657312 118.40138794 20.3125 119.25 C19.35964111 119.82194092 18.40678223 120.39388184 17.42504883 120.9831543 C15.51227554 122.130883 13.59620128 123.27312954 11.67675781 124.40966797 C8.15425867 126.50247711 4.66929972 128.65294737 1.1875 130.8125 C-0.54147822 131.87530663 -2.2705575 132.93794904 -4 134 C-6.87428145 130.60058882 -8.4367011 126.87897871 -10.046875 122.78125 C-10.33451218 122.06417877 -10.62214935 121.34710754 -10.91850281 120.60830688 C-11.54078636 119.05565335 -12.1604579 117.50195095 -12.77780151 115.94732666 C-14.44978876 111.73841354 -16.14206284 107.5376555 -17.83203125 103.3359375 C-18.17931778 102.47112762 -18.52660431 101.60631775 -18.88441467 100.71530151 C-22.32774643 92.15391142 -25.87265941 83.63635358 -29.4375 75.125 C-35.6293924 60.32778629 -41.73767909 45.49742125 -47.81030273 30.65087891 C-48.13532272 29.8567308 -48.46034271 29.0625827 -48.79521179 28.24436951 C-49.39856588 26.76987755 -50.00140331 25.29517401 -50.60359192 23.82020569 C-50.8758812 23.15468185 -51.14817047 22.48915802 -51.42871094 21.8034668 C-51.81536926 20.849767 -51.81536926 20.849767 -52.20983887 19.87680054 C-52.74617924 18.60287823 -53.31232279 17.34117766 -53.90441895 16.0921936 C-56.06265566 11.48871412 -56.06265566 11.48871412 -55.6875 8.5625 C-55.460625 8.046875 -55.23375 7.53125 -55 7 C-54.47269287 7.40541016 -53.94538574 7.81082031 -53.40209961 8.22851562 C-44.01247387 15.77273029 -44.01247387 15.77273029 -32.87060547 18.96044922 C-28.69710539 17.73823282 -25.37977301 15.15222881 -21.99365234 12.49951172 C-19.01691647 10.26058057 -15.8411475 8.39020348 -12.64892578 6.47680664 C-9.61739271 4.65794693 -6.62918668 2.77244274 -3.64135742 0.8828125 C-2 0 -2 0 0 0 Z " fill="#7E2C4B" transform="translate(69,65)"/>
<path d="M0 0 C20.46 0 40.92 0 62 0 C59.95891392 6.80362026 57.8347899 13.20879148 55.12109375 19.72265625 C54.75360519 20.61800079 54.38611664 21.51334534 54.00749207 22.43582153 C52.00425796 27.30982438 49.97329866 32.17188814 47.93310547 37.03051758 C42.78120219 49.26967618 42.78120219 49.26967618 38.57421875 61.8515625 C34.15337982 76.66400175 27.17053886 83.13864974 13.95727539 90.29931641 C11.49155357 91.6080756 9.01044301 92.88416259 6.52441406 94.15380859 C1.36414139 96.8569107 -3.52465864 99.9388359 -8.4375 103.0625 C-10.10824324 104.10078171 -11.78006965 105.13732307 -13.453125 106.171875 C-16.3430423 107.96686974 -19.22813657 109.7692378 -22.109375 111.578125 C-22.72240479 111.960896 -23.33543457 112.34366699 -23.96704102 112.73803711 C-25.54648116 113.72443076 -27.1229965 114.71550364 -28.69921875 115.70703125 C-31 117 -31 117 -33 117 C-30.36829057 106.23737653 -27.53625988 95.55017843 -24.515625 84.890625 C-24.09190826 83.38878757 -23.6683903 81.88689405 -23.24505615 80.38494873 C-22.13896615 76.46287796 -21.02998607 72.5416302 -19.92041016 68.62054443 C-18.81737091 64.72024025 -17.71750029 60.81904277 -16.6171875 56.91796875 C-14.28737259 48.66059679 -11.95028205 40.40529931 -9.60971069 32.15097046 C-9.00210842 30.00743821 -8.39514913 27.86372479 -7.78833008 25.7199707 C-6.6687766 21.76569801 -5.54562119 17.81245824 -4.421875 13.859375 C-4.08818909 12.68030579 -3.75450317 11.50123657 -3.41070557 10.28643799 C-2.95362213 8.68237091 -2.95362213 8.68237091 -2.48730469 7.04589844 C-2.2226239 6.11404724 -1.95794312 5.18219604 -1.6852417 4.22210693 C-1 2 -1 2 0 0 Z " fill="#7F2D4B" transform="translate(172,35)"/>
<path d="M0 0 C0.99 0.495 0.99 0.495 2 1 C-3.6662183 6.20809852 -9.42024889 11.22322281 -15.4609375 15.9921875 C-23.65559149 22.47226773 -31.66472437 29.19195803 -39.72729492 35.83520508 C-45.47433947 40.56976372 -51.23346913 45.28918786 -57 50 C-58.83345036 51.49985696 -60.66678171 52.9998594 -62.5 54.5 C-73.5 63.5 -84.5 72.5 -95.5 81.5 C-96.41523438 82.24894531 -97.33046875 82.99789062 -98.2734375 83.76953125 C-100.02817784 85.20499935 -101.78335155 86.63993796 -103.5390625 88.07421875 C-109.2034079 92.70323818 -114.85440553 97.34813906 -120.5 102 C-126.98905001 107.34685204 -133.48844833 112.68056318 -140 118 C-141.83345036 119.49985696 -143.66678171 120.9998594 -145.5 122.5 C-152.83333333 128.5 -160.16666667 134.5 -167.5 140.5 C-168.41523438 141.24894531 -169.33046875 141.99789062 -170.2734375 142.76953125 C-172.02817784 144.20499935 -173.78335155 145.63993796 -175.5390625 147.07421875 C-180.45913061 151.09499949 -185.3705881 155.12593512 -190.27441406 159.16650391 C-191.75247949 160.38417299 -193.23099185 161.60129975 -194.70996094 162.81787109 C-197.95803601 165.49005151 -201.2029406 168.16536765 -204.4296875 170.86328125 C-205.40164062 171.67152344 -206.37359375 172.47976562 -207.375 173.3125 C-208.62410156 174.35857422 -208.62410156 174.35857422 -209.8984375 175.42578125 C-212 177 -212 177 -215 178 C-216.20449856 174.235942 -216.45396684 170.92887664 -216 167 C-214.21923791 164.58481314 -211.99454424 162.88078978 -209.625 161.0625 C-208.98449707 160.54381348 -208.34399414 160.02512695 -207.68408203 159.49072266 C-205.80405 157.9741729 -203.90462614 156.48546331 -202 155 C-200.29117237 153.62561435 -198.58276804 152.25070203 -196.875 150.875 C-195.71484375 149.95847656 -195.71484375 149.95847656 -194.53125 149.0234375 C-189.62027916 145.09769229 -184.81753561 141.03944566 -180 137 C-188.31648435 141.25703411 -196.08408211 146.19561089 -203.88671875 151.31640625 C-205.25779886 152.2109584 -206.62889272 153.10548948 -208 154 C-208.72396973 154.47937012 -209.44793945 154.95874023 -210.19384766 155.45263672 C-210.89944824 155.91041504 -211.60504883 156.36819336 -212.33203125 156.83984375 C-212.96471924 157.25484131 -213.59740723 157.66983887 -214.24926758 158.09741211 C-216 159 -216 159 -219 159 C-219.50534727 156.27172635 -220.00443845 153.54255306 -220.5 150.8125 C-220.71462891 149.65911133 -220.71462891 149.65911133 -220.93359375 148.48242188 C-221.20321969 146.9866399 -221.45524108 145.48755795 -221.68798828 143.9855957 C-221.93580587 142.40852179 -222.24960253 140.84184427 -222.5859375 139.28125 C-221.70480707 135.85071554 -219.50784459 134.90848693 -216.56811523 133.10839844 C-215.35877319 132.40505371 -215.35877319 132.40505371 -214.125 131.6875 C-213.28074463 131.17606445 -212.43648926 130.66462891 -211.56665039 130.13769531 C-209.70927119 129.01306517 -207.84745533 127.89573912 -205.98193359 126.78466797 C-201.85732312 124.31611528 -197.77245779 121.78494783 -193.68432617 119.2565918 C-190.37940765 117.21409797 -187.06938246 115.18012717 -183.7578125 113.1484375 C-179.29165529 110.40787034 -174.827993 107.66333222 -170.3671875 104.9140625 C-159.04218608 97.93479899 -147.70110022 90.98368071 -136.33129883 84.07763672 C-129.1674505 79.72188792 -122.0358096 75.31599428 -114.9128418 70.89379883 C-108.46303327 66.89408187 -101.98691705 62.93920333 -95.5 59 C-87.34929462 54.0494838 -79.22473556 49.05930788 -71.12060547 44.03295898 C-64.12954505 39.69730134 -57.13013767 35.37537809 -50.125 31.0625 C-49.03437256 30.390979 -47.94374512 29.71945801 -46.82006836 29.02758789 C-38.52911021 23.92824645 -30.2145578 18.8685365 -21.88647461 13.83007812 C-15.30089907 9.83267167 -8.8363725 5.68580486 -2.44921875 1.37890625 C-1.64097656 0.92386719 -0.83273437 0.46882813 0 0 Z M-178 134 C-178.33 134.66 -178.66 135.32 -179 136 C-178.01 135.67 -177.02 135.34 -176 135 C-176.66 134.67 -177.32 134.34 -178 134 Z " fill="#9E3554" transform="translate(258,82)"/>
<path d="M0 0 C3.03372303 1.1661127 5.74089359 2.71557201 8.56054688 4.33227539 C9.16688965 4.67888214 9.77323242 5.02548889 10.39794922 5.38259888 C11.67677875 6.11498389 12.95426026 6.84972713 14.23046875 7.58666992 C16.1757907 8.70945689 18.12556633 9.82416686 20.07617188 10.93774414 C26.99326462 14.906504 26.99326462 14.906504 30.18554688 16.84008789 C30.96897461 17.21705811 31.75240234 17.59402832 32.55957031 17.98242188 C35.39210905 21.21857612 34.67063968 25.18763624 34.57617188 29.32055664 C34.57051208 30.24854568 34.56485229 31.17653473 34.559021 32.13264465 C34.53662064 35.09814935 34.48641761 38.06244809 34.43554688 41.02758789 C34.4154866 43.03733607 34.39723501 45.04710318 34.38085938 47.05688477 C34.33674383 51.98508418 34.26769111 56.91238154 34.18554688 61.84008789 C33.47011719 62.23800537 32.7546875 62.63592285 32.01757812 63.04589844 C29.32540955 64.54457087 26.63429548 66.04511594 23.94384766 67.546875 C22.22181796 68.50735727 20.49861644 69.46573764 18.77539062 70.42407227 C17.67324219 71.03959961 16.57109375 71.65512695 15.43554688 72.28930664 C14.35789063 72.89049316 13.28023437 73.49167969 12.16992188 74.11108398 C8.98590055 75.95575341 5.94907148 77.94697389 2.96679688 80.10107422 C0.35145552 81.18613977 -1.12802286 80.66249981 -3.81445312 79.84008789 C-5.83364973 78.89712945 -7.82031813 77.88297267 -9.77929688 76.82055664 C-10.90916016 76.21018555 -12.03902344 75.59981445 -13.203125 74.97094727 C-13.78634521 74.65150146 -14.36956543 74.33205566 -14.97045898 74.00292969 C-16.73945902 73.03442823 -18.51367612 72.07611939 -20.2890625 71.11938477 C-23.48164553 69.38574851 -26.66729116 67.65495729 -29.81445312 65.84008789 C-31.46997192 65.04066772 -31.46997192 65.04066772 -33.15893555 64.22509766 C-36.08962704 61.59294493 -36.22835863 61.23050691 -36.49560547 57.53051758 C-36.49465848 55.77404617 -36.46092331 54.01739119 -36.40039062 52.26196289 C-36.39190094 51.33538879 -36.38341125 50.4088147 -36.37466431 49.4541626 C-36.34110945 46.49828194 -36.26582725 43.54514204 -36.18945312 40.59008789 C-36.15935617 38.58491899 -36.1319799 36.57970728 -36.10742188 34.57446289 C-36.04131125 29.66195052 -35.93777558 24.75148364 -35.81445312 19.84008789 C-34.69586914 19.19777222 -34.69586914 19.19777222 -33.5546875 18.54248047 C-30.75093439 16.93154069 -27.94796963 15.31923965 -25.14550781 13.70605469 C-23.93943498 13.01216078 -22.73306207 12.31878814 -21.52636719 11.62597656 C-19.77782579 10.62194264 -18.03044488 9.61591263 -16.28320312 8.60961914 C-15.16558594 7.96718262 -14.04796875 7.32474609 -12.89648438 6.6628418 C-10.27500346 5.11246343 -7.74903645 3.48443921 -5.22070312 1.78930664 C-1.81445312 -0.15991211 -1.81445312 -0.15991211 0 0 Z M-5.47070312 17.64868164 C-6.41042969 18.23069336 -7.35015625 18.81270508 -8.31835938 19.41235352 C-9.30707031 20.02788086 -10.29578125 20.6434082 -11.31445312 21.27758789 C-12.79751953 22.19507813 -12.79751953 22.19507813 -14.31054688 23.13110352 C-18.7946933 25.67848403 -18.7946933 25.67848403 -22.81445312 28.84008789 C-23.09497937 32.41552233 -23.04630059 36.0049628 -23.06445312 39.59008789 C-23.08507813 40.59297852 -23.10570312 41.59586914 -23.12695312 42.62915039 C-23.333577 49.85067194 -23.333577 49.85067194 -19.81445312 55.84008789 C-16.95106819 57.86517183 -13.961656 59.55203069 -10.87695312 61.21508789 C-10.06548828 61.67786133 -9.25402344 62.14063477 -8.41796875 62.61743164 C-4.37072524 65.12806698 -4.37072524 65.12806698 0.1652832 65.55908203 C0.83197021 65.32181396 1.49865723 65.0845459 2.18554688 64.84008789 C3.27367676 64.48829468 3.27367676 64.48829468 4.38378906 64.12939453 C10.66166065 61.77943449 16.88175061 59.14673265 21.18554688 53.84008789 C22.72823466 49.37773149 22.95761339 45.22613362 22.93554688 40.52758789 C22.93780273 39.38233643 22.94005859 38.23708496 22.94238281 37.05712891 C22.55870296 30.883804 22.55870296 30.883804 19.28710938 25.84985352 C16.98643156 24.29202167 14.68608327 23.04650069 12.18554688 21.84008789 C11.0225821 21.14547963 9.86538727 20.44102839 8.71679688 19.72290039 C7.71648438 19.14282227 6.71617188 18.56274414 5.68554688 17.96508789 C4.66460937 17.36954102 3.64367187 16.77399414 2.59179688 16.16040039 C-1.19837638 14.0807274 -1.8547368 15.40682279 -5.47070312 17.64868164 Z " fill="#862E4E" transform="translate(35.814453125,0.159912109375)"/>
<path d="M0 0 C4.1732775 1.7909612 7.76234073 3.79015567 11 7 C11.93555995 10.82962725 11.69073159 14.14167101 11 18 C6.86502951 17.19363387 3.84278235 15.18102124 0.31640625 12.9609375 C-2.63183889 11.73788808 -3.94799947 12.167662 -7 13 C-9.22348346 14.09861439 -9.22348346 14.09861439 -11.35546875 15.50390625 C-12.14244141 15.99697266 -12.92941406 16.49003906 -13.74023438 16.99804688 C-14.54783203 17.51431641 -15.35542969 18.03058594 -16.1875 18.5625 C-17.80350679 19.58855624 -19.42188401 20.61089172 -21.04296875 21.62890625 C-22.11067505 22.3106189 -22.11067505 22.3106189 -23.19995117 23.00610352 C-25 24 -25 24 -27 24 C-28.56646887 39.56847724 -28.56646887 39.56847724 -24.67675781 54.01318359 C-21.25599301 56.94745323 -17.40800197 58.14169642 -13 59 C-14.59010355 62.3273092 -16.03344697 64.71151623 -19 67 C-23.48808076 66.65110326 -26.92917053 64.59490526 -30.8125 62.4375 C-31.40998047 62.10814453 -32.00746094 61.77878906 -32.62304688 61.43945312 C-34.08533998 60.63226733 -35.5431399 59.81695083 -37 59 C-37.37298008 53.32649477 -37.64381662 47.66019846 -37.82397461 41.97729492 C-37.89907986 40.04894754 -38.00122015 38.12144557 -38.1315918 36.19604492 C-39.1558101 20.6721087 -39.1558101 20.6721087 -35.62634277 16.29736328 C-32.0875753 13.35205057 -28.09160999 11.52307473 -23.85464478 9.79110718 C-21.39402945 8.7415205 -19.22330997 7.36665537 -16.9921875 5.8984375 C-15.61982819 5.05723207 -14.24743421 4.21608322 -12.875 3.375 C-12.17375 2.93027344 -11.4725 2.48554687 -10.75 2.02734375 C-4.44952291 -1.78860558 -4.44952291 -1.78860558 0 0 Z " fill="#4D1D3D" transform="translate(39,3)"/>
<path d="M0 0 C3.03372303 1.1661127 5.74089359 2.71557201 8.56054688 4.33227539 C9.16688965 4.67888214 9.77323242 5.02548889 10.39794922 5.38259888 C11.67677875 6.11498389 12.95426026 6.84972713 14.23046875 7.58666992 C16.1757907 8.70945689 18.12556633 9.82416686 20.07617188 10.93774414 C26.99326462 14.906504 26.99326462 14.906504 30.18554688 16.84008789 C30.96897461 17.21705811 31.75240234 17.59402832 32.55957031 17.98242188 C35.39210905 21.21857612 34.67063968 25.18763624 34.57617188 29.32055664 C34.57051208 30.24854568 34.56485229 31.17653473 34.559021 32.13264465 C34.53662064 35.09814935 34.48641761 38.06244809 34.43554688 41.02758789 C34.4154866 43.03733607 34.39723501 45.04710318 34.38085938 47.05688477 C34.33674383 51.98508418 34.26769111 56.91238154 34.18554688 61.84008789 C33.47011719 62.23800537 32.7546875 62.63592285 32.01757812 63.04589844 C29.32540955 64.54457087 26.63429548 66.04511594 23.94384766 67.546875 C22.22181796 68.50735727 20.49861644 69.46573764 18.77539062 70.42407227 C13.93509627 73.12727759 9.14008433 75.82613581 4.49804688 78.85961914 C3.40492187 79.51317383 2.31179687 80.16672852 1.18554688 80.84008789 C0.19554688 80.34508789 0.19554688 80.34508789 -0.81445312 79.84008789 C4.01535622 76.23799986 8.61273482 73.55918887 14.31445312 71.56274414 C21.3540724 68.81329577 27.70930313 66.16734296 32.18554688 59.84008789 C35.95969465 47.75224081 33.47739591 33.14853838 32.18554688 20.84008789 C26.90554687 17.87008789 21.62554687 14.90008789 16.18554688 11.84008789 C15.85554688 15.47008789 15.52554688 19.10008789 15.18554688 22.84008789 C17.66054687 23.83008789 17.66054687 23.83008789 20.18554688 24.84008789 C20.84554687 25.17008789 21.50554688 25.50008789 22.18554688 25.84008789 C24.23843951 51.06758744 24.23843951 51.06758744 21.0546875 56.91821289 C17.76022223 60.22601608 13.53471411 61.46048704 9.18554688 62.84008789 C7.49655345 63.84514929 5.82597539 64.88257161 4.18554688 65.96508789 C0.59919342 67.93200935 0.59919342 67.93200935 -2.62695312 67.21508789 C-3.34882812 66.76133789 -4.07070313 66.30758789 -4.81445312 65.84008789 C-6.74846229 64.77253955 -6.74846229 64.77253955 -8.81445312 64.84008789 C-11.58567588 67.19435288 -11.58567588 67.19435288 -13.81445312 69.84008789 C-14.47445313 69.51008789 -15.13445313 69.18008789 -15.81445312 68.84008789 C-13.83445312 66.53008789 -11.85445312 64.22008789 -9.81445312 61.84008789 C-10.63945312 61.61321289 -11.46445312 61.38633789 -12.31445312 61.15258789 C-13.46945313 60.71946289 -14.62445312 60.28633789 -15.81445312 59.84008789 C-16.81726318 59.47016724 -16.81726318 59.47016724 -17.84033203 59.09277344 C-21.52636753 57.33299714 -23.42217431 55.94640982 -24.81542969 52.01708984 C-26.18329616 43.78275079 -26.59393204 34.79343745 -23.81445312 26.84008789 C-18.54824793 20.37198601 -9.8797314 15.82120701 -1.81445312 13.84008789 C2.35566984 14.31487345 5.35853824 15.84166131 8.99804688 17.90258789 C9.97386719 18.45043945 10.9496875 18.99829102 11.95507812 19.56274414 C12.69113281 19.98426758 13.4271875 20.40579102 14.18554688 20.84008789 C14.55576119 16.90300103 14.47449656 13.60120278 13.18554688 9.84008789 C9.59623062 6.58453428 5.77087923 4.39956641 1.18554688 2.84008789 C-3.23278992 3.24691046 -6.32010767 5.11542423 -10.06835938 7.40258789 C-10.65109116 7.75393799 -11.23382294 8.10528809 -11.83421326 8.46728516 C-13.68608197 9.58465016 -15.53194105 10.71144265 -17.37695312 11.84008789 C-19.22597494 12.96794545 -21.07623303 14.09351741 -22.93040466 15.21289062 C-24.61066793 16.22764823 -26.28605854 17.25046113 -27.96118164 18.27368164 C-30.81445312 19.84008789 -30.81445312 19.84008789 -34.81445312 20.84008789 C-34.81445312 34.37008789 -34.81445312 47.90008789 -34.81445312 61.84008789 C-35.14445312 61.84008789 -35.47445312 61.84008789 -35.81445312 61.84008789 C-35.81445312 47.98008789 -35.81445312 34.12008789 -35.81445312 19.84008789 C-23.31445313 12.65258789 -23.31445313 12.65258789 -19.421875 10.41748047 C-18.38611328 9.82088623 -17.35035156 9.22429199 -16.28320312 8.60961914 C-15.16558594 7.96718262 -14.04796875 7.32474609 -12.89648438 6.6628418 C-10.27500346 5.11246343 -7.74903645 3.48443921 -5.22070312 1.78930664 C-1.81445312 -0.15991211 -1.81445312 -0.15991211 0 0 Z M-5.47070312 17.64868164 C-6.41042969 18.23069336 -7.35015625 18.81270508 -8.31835938 19.41235352 C-9.30707031 20.02788086 -10.29578125 20.6434082 -11.31445312 21.27758789 C-12.79751953 22.19507813 -12.79751953 22.19507813 -14.31054688 23.13110352 C-18.7946933 25.67848403 -18.7946933 25.67848403 -22.81445312 28.84008789 C-23.09497937 32.41552233 -23.04630059 36.0049628 -23.06445312 39.59008789 C-23.08507813 40.59297852 -23.10570312 41.59586914 -23.12695312 42.62915039 C-23.333577 49.85067194 -23.333577 49.85067194 -19.81445312 55.84008789 C-16.95106819 57.86517183 -13.961656 59.55203069 -10.87695312 61.21508789 C-10.06548828 61.67786133 -9.25402344 62.14063477 -8.41796875 62.61743164 C-4.37072524 65.12806698 -4.37072524 65.12806698 0.1652832 65.55908203 C0.83197021 65.32181396 1.49865723 65.0845459 2.18554688 64.84008789 C3.27367676 64.48829468 3.27367676 64.48829468 4.38378906 64.12939453 C10.66166065 61.77943449 16.88175061 59.14673265 21.18554688 53.84008789 C22.72823466 49.37773149 22.95761339 45.22613362 22.93554688 40.52758789 C22.93780273 39.38233643 22.94005859 38.23708496 22.94238281 37.05712891 C22.55870296 30.883804 22.55870296 30.883804 19.28710938 25.84985352 C16.98643156 24.29202167 14.68608327 23.04650069 12.18554688 21.84008789 C11.0225821 21.14547963 9.86538727 20.44102839 8.71679688 19.72290039 C7.71648438 19.14282227 6.71617188 18.56274414 5.68554688 17.96508789 C4.66460937 17.36954102 3.64367187 16.77399414 2.59179688 16.16040039 C-1.19837638 14.0807274 -1.8547368 15.40682279 -5.47070312 17.64868164 Z " fill="#9D3555" transform="translate(35.814453125,0.159912109375)"/>
<path d="M0 0 C0.66 0 1.32 0 2 0 C3.65519256 4.12552049 5.3091985 8.25151422 6.9621582 12.37792969 C7.52336432 13.77844751 8.08488129 15.17884081 8.64672852 16.57910156 C14.39179275 30.898355 14.39179275 30.898355 17 38 C18.77357907 33.83449687 20.54336595 29.6673927 22.3125 25.5 C22.81201172 24.32695312 23.31152344 23.15390625 23.82617188 21.9453125 C26.34593904 16.00466937 28.80004807 10.06676163 31 4 C31.66 4 32.32 4 33 4 C30.69813797 12.68738359 27.2923424 20.86381138 23.8125 29.125 C23.24759029 30.47637173 22.68313388 31.82793304 22.11914062 33.1796875 C20.7513051 36.45532399 19.37738003 39.72836349 18 43 C15.67857977 40.89523447 14.4240073 39.11314985 13.2824707 36.20288086 C12.98238602 35.44877426 12.68230133 34.69466766 12.37312317 33.91770935 C12.06050034 33.1082637 11.7478775 32.29881805 11.42578125 31.46484375 C11.09708542 30.63038223 10.76838959 29.79592072 10.42973328 28.93617249 C9.73777713 27.17496528 9.04961477 25.41226347 8.36499023 23.64819336 C7.31386323 20.941011 6.25073692 18.23878517 5.18554688 15.53710938 C4.51491648 13.82579832 3.8449709 12.11421871 3.17578125 10.40234375 C2.85708572 9.59087387 2.5383902 8.77940399 2.21003723 7.94334412 C0 2.23282724 0 2.23282724 0 0 Z " fill="#311C29" transform="translate(98,282)"/>
<path d="M0 0 C0.66 0.33 1.32 0.66 2 1 C-4.12210136 6.63642317 -10.34521503 12.00087409 -17 17 C-18 14 -18 14 -17.2890625 11.97583008 C-15.84909408 9.76869666 -14.60015615 8.77716431 -12.375 7.38671875 C-11.66859375 6.94392578 -10.9621875 6.50113281 -10.234375 6.04492188 C-9.49703125 5.59697266 -8.7596875 5.14902344 -8 4.6875 C-7.26265625 4.22021484 -6.5253125 3.75292969 -5.765625 3.27148438 C-1.68158069 0.74876722 -1.68158069 0.74876722 0 0 Z " fill="#8B314C" transform="translate(258,82)"/>
<path d="M0 0 C2.00993705 3.01490557 2.72623341 5.2149927 3.625 8.6875 C3.88539062 9.68136719 4.14578125 10.67523438 4.4140625 11.69921875 C4.60742188 12.45847656 4.80078125 13.21773437 5 14 C5.66 12.35 6.32 10.7 7 9 C8.60080151 13.00200378 7.29279692 16.04556236 6 20 C5.34 19.67 4.68 19.34 4 19 C3.19302005 16.55844387 2.50322609 14.17480995 1.875 11.6875 C1.69324219 11.01009766 1.51148437 10.33269531 1.32421875 9.63476562 C0.45138936 6.27798193 0 3.49419858 0 0 Z " fill="#36212A" transform="translate(110,219)"/>
<path d="M0 0 C0.66 0.33 1.32 0.66 2 1 C-1.3 3.97 -4.6 6.94 -8 10 C-8.33 9.34 -8.66 8.68 -9 8 C-9.66 7.67 -10.32 7.34 -11 7 C-9.21475351 5.80286983 -7.4215972 4.61752721 -5.625 3.4375 C-4.62726563 2.77621094 -3.62953125 2.11492187 -2.6015625 1.43359375 C-1.74304688 0.96050781 -0.88453125 0.48742187 0 0 Z " fill="#732B40" transform="translate(258,82)"/>
<path d="M0 0 C0.66 0 1.32 0 2 0 C1.25 4.75 1.25 4.75 -1 7 C-1 6.01 -1 5.02 -1 4 C-2.65 4.66 -4.3 5.32 -6 6 C-4 4 -2 2 0 0 Z " fill="#3D222C" transform="translate(184,152)"/>
<path d="M0 0 C0.33 0 0.66 0 1 0 C1 1.98 1 3.96 1 6 C1.66 6.33 2.32 6.66 3 7 C1.35 7.66 -0.3 8.32 -2 9 C-1.34 6.03 -0.68 3.06 0 0 Z " fill="#3D232D" transform="translate(141,143)"/>
</svg>
